<?xml version="1.0" encoding="utf-8"?><svg viewBox="0 0 143 45" xmlns="http://www.w3.org/2000/svg" xmlns:xlink="http://www.w3.org/1999/xlink"><style>:root>svg{display:none}:root>svg:target{display:block}</style><svg viewBox="0 0 44 45" id="Instagram" xmlns="http://www.w3.org/2000/svg"><mask id="ca" maskUnits="userSpaceOnUse" x="0" y="0" width="44" height="45"><path fill-rule="evenodd" clip-rule="evenodd" d="M0 22.486C0 10.4 9.85.6 22 .6s22 9.799 22 21.886c0 12.088-9.85 21.886-22 21.886S0 34.574 0 22.486Z"/></mask><g mask="url(#ca)" fill-rule="evenodd" clip-rule="evenodd"><path d="M0 22.486C0 10.4 9.85.6 22 .6s22 9.799 22 21.886c0 12.088-9.85 21.886-22 21.886S0 34.574 0 22.486Z"/><path d="M22.001 10.813c-3.187 0-3.587.014-4.838.07-1.25.058-2.102.255-2.848.543a5.748 5.748 0 0 0-2.078 1.346 5.725 5.725 0 0 0-1.355 2.068c-.29.742-.489 1.59-.545 2.833-.056 1.245-.07 1.643-.07 4.813s.014 3.567.07 4.812c.058 1.243.256 2.09.546 2.833.3.768.7 1.419 1.353 2.068a5.749 5.749 0 0 0 2.078 1.347c.746.289 1.6.486 2.848.542 1.252.057 1.651.07 4.838.07 3.186 0 3.585-.013 4.837-.07 1.249-.056 2.102-.253 2.849-.542a5.745 5.745 0 0 0 2.077-1.347 5.727 5.727 0 0 0 1.354-2.068c.289-.742.487-1.59.545-2.833.057-1.245.071-1.642.071-4.812 0-3.17-.014-3.568-.07-4.813-.06-1.243-.257-2.09-.546-2.833a5.726 5.726 0 0 0-1.354-2.068 5.737 5.737 0 0 0-2.078-1.346c-.748-.289-1.6-.485-2.85-.542-1.252-.057-1.65-.07-4.838-.07h.004Zm-1.052 2.104H22c3.133 0 3.504.011 4.741.067 1.145.052 1.765.242 2.179.402a3.63 3.63 0 0 1 1.348.873c.411.409.665.798.878 1.343.161.41.352 1.028.405 2.166.056 1.23.068 1.6.068 4.716 0 3.115-.012 3.484-.069 4.715-.052 1.138-.243 1.756-.404 2.167a3.609 3.609 0 0 1-.878 1.34c-.41.41-.8.662-1.348.874-.413.16-1.034.35-2.178.402-1.237.056-1.609.068-4.742.068s-3.504-.012-4.741-.068c-1.144-.053-1.765-.243-2.179-.402a3.638 3.638 0 0 1-1.35-.873 3.617 3.617 0 0 1-.877-1.342c-.16-.411-.352-1.029-.404-2.167-.057-1.23-.068-1.6-.068-4.717 0-3.117.011-3.485.068-4.716.052-1.138.243-1.755.404-2.167.212-.545.467-.934.878-1.342.41-.409.802-.662 1.35-.874.413-.16 1.034-.35 2.178-.402 1.082-.049 1.502-.063 3.689-.066v.003Zm7.315 1.938c-.777 0-1.408.627-1.408 1.4 0 .774.631 1.401 1.408 1.401.778 0 1.408-.627 1.408-1.4 0-.774-.63-1.401-1.408-1.401Zm-6.263 1.637c-3.328 0-6.026 2.684-6.026 5.994 0 3.31 2.698 5.994 6.026 5.994s6.025-2.683 6.025-5.994c0-3.31-2.698-5.994-6.025-5.994Zm0 2.103c2.16 0 3.911 1.742 3.911 3.891 0 2.15-1.75 3.891-3.91 3.891s-3.912-1.742-3.912-3.89c0-2.15 1.751-3.892 3.911-3.892Z"/></g></svg><svg viewBox="0 0 7 8" id="arrow-down" xmlns="http://www.w3.org/2000/svg"><g clip-path="url(#aa)"><path d="M6.92 5.69a.273.273 0 0 1-.387 0l-2.84-2.834a.274.274 0 0 0-.387 0L.466 5.69a.273.273 0 0 1-.386-.387L2.92 2.47a.818.818 0 0 1 1.16 0l2.84 2.833a.273.273 0 0 1 0 .387Z"/></g><defs><clipPath id="aa"><path transform="matrix(1 0 0 -1 0 7.5)" d="M0 0h7v7H0z"/></clipPath></defs></svg><svg viewBox="0 0 20 19" id="cart" xmlns="http://www.w3.org/2000/svg"><path d="M20 6.579h-3.396L13.036.319a.608.608 0 0 0-.858-.225.678.678 0 0 0-.214.902l3.182 5.583H4.854L8.036.996a.678.678 0 0 0-.214-.902.608.608 0 0 0-.858.225L3.396 6.58H0v1.316h1.357l1.587 8.915c.166.934.941 1.611 1.844 1.611h10.424c.902 0 1.678-.677 1.843-1.61l1.588-8.916H20V6.579Zm-4.174 9.99a.634.634 0 0 1-.614.536H4.788a.634.634 0 0 1-.615-.537L2.628 7.895h14.744l-1.546 8.674Z"/></svg><svg viewBox="0 0 143 23" id="logo" xmlns="http://www.w3.org/2000/svg"><path d="M.26 15.79h4.29c.04.9.47 1.58 1.29 2.04.84.46 1.82.69 2.94.69 2.68 0 4.02-.88 4.02-2.64 0-.46-.11-.86-.33-1.2-.2-.34-.43-.59-.69-.75-.26-.18-.63-.33-1.11-.45-.48-.12-.88-.2-1.2-.24-.3-.04-.72-.08-1.26-.12-5.1-.44-7.65-2.43-7.65-5.97 0-2.18.76-3.82 2.28-4.92C4.36 1.11 6.26.55 8.54.55c1.04 0 2.01.12 2.91.36.92.22 1.77.57 2.55 1.05.78.48 1.4 1.15 1.86 2.01.46.84.69 1.82.69 2.94h-4.2c-.12-.8-.54-1.4-1.26-1.8-.72-.42-1.57-.63-2.55-.63-.96 0-1.8.24-2.52.72-.7.46-1.05 1.08-1.05 1.86 0 .84.34 1.44 1.02 1.8.7.34 1.7.58 3 .72 1.26.12 2.32.28 3.18.48.88.2 1.73.52 2.55.96.84.44 1.47 1.07 1.89 1.89.42.8.63 1.79.63 2.97 0 1.18-.24 2.21-.72 3.09-.48.88-1.14 1.56-1.98 2.04-.82.48-1.71.83-2.67 1.05-.94.24-1.96.37-3.06.39-2.32 0-4.33-.57-6.03-1.71C1.1 19.58.26 17.93.26 15.79ZM34.898 22h-4.23v-8.37c.04-.94-.21-1.69-.75-2.25-.52-.56-1.18-.84-1.98-.84-.84 0-1.56.29-2.16.87-.6.56-.9 1.33-.9 2.31V22h-4.2v-9.99c0-.44-.01-.75-.03-.93 0-.18-.05-.36-.15-.54a.55.55 0 0 0-.42-.33c-.18-.06-.44-.09-.78-.09V7.51c3.52-.6 5.28.05 5.28 1.95.38-.78 1-1.35 1.86-1.71.88-.36 1.8-.54 2.76-.54 1.94 0 3.37.59 4.29 1.77.94 1.18 1.41 2.73 1.41 4.65V22ZM45.346 7.18c2.58 0 4.43.78 5.55 2.34 1.14 1.56 1.43 3.6.87 6.12h-9.81c.14 2 1.42 3.09 3.84 3.27.84.04 1.48.03 1.92-.03 1.36-.16 2.51-.45 3.45-.87l.48 3.06c-1.82.86-3.69 1.29-5.61 1.29-2.46.04-4.46-.64-6-2.04-1.52-1.4-2.28-3.31-2.28-5.73.04-2.38.79-4.21 2.25-5.49 1.48-1.28 3.26-1.92 5.34-1.92Zm0 3.21c-.84 0-1.57.23-2.19.69-.62.44-1.01 1.06-1.17 1.86h6.36c.04-.88-.23-1.52-.81-1.92-.58-.42-1.31-.63-2.19-.63Zm19.044 9.39c-.4.84-1.08 1.47-2.04 1.89-.94.4-1.93.6-2.97.6-1.4 0-2.62-.41-3.66-1.23-1.02-.84-1.55-1.94-1.59-3.3-.08-1.7.41-2.99 1.47-3.87 1.06-.9 2.44-1.35 4.14-1.35 1.58 0 2.86.31 3.84.93v-.99c0-1.38-1.2-2.07-3.6-2.07-1.74 0-3.13.29-4.17.87l-.54-3c1.52-.72 3.33-1.08 5.43-1.08 4.6 0 6.9 1.8 6.9 5.4v6.06c.02.16.07.35.15.57.08.2.21.33.39.39.2.06.47.08.81.06l.03 2.34c-.76.14-1.48.21-2.16.21-.68 0-1.26-.2-1.74-.6-.46-.42-.69-1.03-.69-1.83Zm-.9-2.97v-.75c-.82-.56-1.82-.84-3-.84-.7.04-1.27.26-1.71.66-.44.38-.62.91-.54 1.59.04.5.25.89.63 1.17.38.26.83.39 1.35.39.78 0 1.5-.19 2.16-.57.68-.4 1.05-.95 1.11-1.65Zm12.41-3.96h1.02c1.54 0 2.62-.47 3.24-1.41.62-.96.93-2.27.93-3.93h3.96c.04 1.68-.19 3.12-.69 4.32-.5 1.18-1.42 2.12-2.76 2.82l4.14 6.9v.42h-4.23l-3.45-6c-.36.12-.76.18-1.2.18h-.96v5.82h-4.17V.07h4.17v12.78Zm22.914-1.92 8.43-9.99h1.62V22h-4.5V10.63l-5.28 6.6h-.57l-5.28-6.6V22h-4.5V.94h1.65l8.43 9.99Zm23.466 8.85c-.4.84-1.08 1.47-2.04 1.89-.94.4-1.93.6-2.97.6-1.4 0-2.62-.41-3.66-1.23-1.02-.84-1.55-1.94-1.59-3.3-.08-1.7.41-2.99 1.47-3.87 1.06-.9 2.44-1.35 4.14-1.35 1.58 0 2.86.31 3.84.93v-.99c0-1.38-1.2-2.07-3.6-2.07-1.74 0-3.13.29-4.17.87l-.54-3c1.52-.72 3.33-1.08 5.43-1.08 4.6 0 6.9 1.8 6.9 5.4v6.06c.02.16.07.35.15.57.08.2.21.33.39.39.2.06.47.08.81.06l.03 2.34c-.76.14-1.48.21-2.16.21-.68 0-1.26-.2-1.74-.6-.46-.42-.69-1.03-.69-1.83Zm-.9-2.97v-.75c-.82-.56-1.82-.84-3-.84-.7.04-1.27.26-1.71.66-.44.38-.62.91-.54 1.59.04.5.25.89.63 1.17.38.26.83.39 1.35.39.78 0 1.5-.19 2.16-.57.68-.4 1.05-.95 1.11-1.65Zm14.271.09h-.09l-1.71 2.88-1.56 2.22h-4.2v-.48l5.01-7.2-4.29-6.33v-.45h4.02l1.29 1.89 1.38 2.43h.09l1.35-2.46 1.26-1.86h4.29v.48l-4.44 6.45 4.89 7.05V22h-4.05l-1.62-2.34-1.62-2.76Z"/></svg><svg viewBox="0 0 32 25" id="ok" xmlns="http://www.w3.org/2000/svg"><path d="M12.018 24.518a1.575 1.575 0 0 1-2.266 0L.704 15.235a2.51 2.51 0 0 1 0-3.487l1.133-1.162a2.36 2.36 0 0 1 3.4 0l5.648 5.795L26.15.723a2.36 2.36 0 0 1 3.399 0l1.133 1.162a2.51 2.51 0 0 1 0 3.487L12.018 24.518Z"/></svg><svg viewBox="0 0 26 20" id="show" xmlns="http://www.w3.org/2000/svg"><path clip-rule="evenodd" d="M16.952 10.066a3.952 3.952 0 1 1-7.904-.001 3.952 3.952 0 0 1 7.904.001Z"/><path clip-rule="evenodd" d="M12.998 19.194c4.76 0 9.113-3.423 11.565-9.128C22.11 4.361 17.758.94 12.998.94h.005c-4.76 0-9.114 3.422-11.566 9.127 2.452 5.705 6.805 9.128 11.566 9.128h-.005Z"/></svg><svg viewBox="0 0 16 15" id="star" xmlns="http://www.w3.org/2000/svg"><path d="M7.049.927c.3-.921 1.603-.921 1.902 0l1.07 3.292a1 1 0 0 0 .95.69h3.462c.969 0 1.371 1.24.588 1.81l-2.8 2.034a1 1 0 0 0-.364 1.118l1.07 3.292c.3.921-.755 1.688-1.539 1.118l-2.8-2.034a1 1 0 0 0-1.176 0l-2.8 2.034c-.784.57-1.838-.197-1.539-1.118l1.07-3.292a1 1 0 0 0-.363-1.118L.98 6.72c-.784-.57-.382-1.81.587-1.81h3.461a1 1 0 0 0 .951-.69L7.05.927Z"/></svg><svg viewBox="0 0 44 45" id="vk" xmlns="http://www.w3.org/2000/svg"><path fill-rule="evenodd" clip-rule="evenodd" d="M0 22.486C0 10.4 9.85.6 22 .6s22 9.799 22 21.886c0 12.088-9.85 21.886-22 21.886S0 34.574 0 22.486Z"/><path fill-rule="evenodd" clip-rule="evenodd" d="M23.15 29.669s.424-.046.641-.274c.199-.208.192-.601.192-.601s-.027-1.838.847-2.109c.86-.266 1.966 1.777 3.14 2.562.885.595 1.558.465 1.558.465l3.134-.043s1.64-.099.862-1.357c-.064-.104-.453-.932-2.33-2.633-1.966-1.781-1.702-1.493.665-4.574 1.441-1.876 2.018-3.022 1.837-3.512-.17-.468-1.231-.344-1.231-.344l-3.528.021s-.262-.034-.456.079c-.19.11-.312.37-.312.37s-.558 1.451-1.303 2.686c-1.571 2.605-2.199 2.743-2.456 2.582-.598-.378-.449-1.516-.449-2.324 0-2.525.393-3.577-.763-3.85-.384-.09-.666-.15-1.647-.16-1.26-.012-2.324.004-2.928.293-.402.191-.712.62-.522.644.233.03.76.139 1.04.511.362.48.35 1.56.35 1.56s.207 2.971-.486 3.34c-.475.253-1.127-.263-2.528-2.627-.718-1.21-1.26-2.549-1.26-2.549s-.104-.25-.291-.384a1.466 1.466 0 0 0-.542-.213l-3.352.021s-.504.014-.689.228c-.164.19-.013.583-.013.583s2.625 5.997 5.598 9.02c2.726 2.77 5.82 2.589 5.82 2.589h1.403Z"/></svg></svg>